<svg width="577" height="185" viewBox="0 0 577 185" fill="none" xmlns="http://www.w3.org/2000/svg">
<path fill-rule="evenodd" clip-rule="evenodd" d="M165 16C160.582 16 157 12.4183 157 8C157 3.58172 160.582 0 165 0H178H412H442C449.18 0 455 5.8203 455 13C455 20.1797 449.18 26 442 26H386.5C390.642 26 394 29.3579 394 33.5C394 37.6421 390.642 41 386.5 41H450.5C457.404 41 463 46.5964 463 53.5C463 60.4036 457.404 66 450.5 66H517C525.284 66 532 72.7157 532 81C532 89.2843 525.284 96 517 96H446C451.523 96 456 100.477 456 106C456 109.958 453.7 113.379 450.364 115H511.5C515.09 115 518 117.91 518 121.5C518 125.09 515.09 128 511.5 128H460.5C471.822 128 481 137.178 481 148.5C481 159.822 471.822 169 460.5 169H412C416.418 169 420 172.582 420 177C420 181.418 416.418 185 412 185H381H156H134C126.82 185 121 179.18 121 172C121 164.82 126.82 159 134 159H190.89L190.889 158.999C186.522 158.94 183 155.381 183 151C183 147.988 184.665 145.365 187.124 144H112C104.82 144 99 138.18 99 131C99 123.82 104.82 118 112 118H60.5C52.4919 118 46 111.508 46 103.5C46 95.4919 52.4919 89 60.5 89H131C125.477 89 121 84.5229 121 79C121 73.4772 125.477 69 131 69H65C61.6863 69 59 66.3137 59 63C59 59.6863 61.6863 57 65 57H116.5C105.178 57 96 47.8218 96 36.5C96 25.1782 105.178 16 116.5 16H165Z" fill="url(#paint0_linear)"/>
<circle cx="17.5" cy="100.5" r="17.5" fill="#FCFF02"/>
<circle cx="505" cy="35" r="6" fill="#FE2CA9"/>
<circle cx="505" cy="35" r="6" fill="#FE2CA9"/>
<circle cx="559.5" cy="84.5" r="17.5" fill="#FE2CA9"/>
<circle cx="559.5" cy="84.5" r="17.5" fill="#FE2CA9"/>
<circle cx="72.5" cy="149.5" r="6.5" fill="#FCFF02"/>
<defs>
<linearGradient id="paint0_linear" x1="46" y1="89" x2="532" y2="89" gradientUnits="userSpaceOnUse">
<stop offset="0.188272" stop-color="#FCFF02"/>
<stop offset="0.769547" stop-color="#FE2CA9"/>
</linearGradient>
</defs>
</svg>
